# AST/ASF file generated using VICON BodyLanguage
# -----------------------------------------------
:version 1.10
:name VICON
:units
  mass 1.0
  length 0.45
  angle deg
:documentation
   .ast/.asf automatically generated from VICON data using
   VICON BodyBuilder and BodyLanguage model FoxedUp or BRILLIANT.MOD
:root
   order TX TY TZ RX RY RZ
   axis XYZ
   position 0 0 0  
   orientation 0 0 0 
:bonedata
  begin
     id 1 
     name lhipjoint
     direction 0.734343 -0.627749 0.258209 
     length 2.5437 
     axis 0 0 0  XYZ
  end
  begin
     id 2 
     name lfemur
     direction 0.34202 -0.939693 0  
     length 6.7391  
     axis 0 0 20  XYZ
    dof rx ry rz
    limits (-160.0 20.0)
           (-70.0 70.0)
           (-60.0 70.0)
  end
  begin
     id 3 
     name ltibia
     direction 0.34202 -0.939693 0   
     length 7.21536   
     axis 0 0 20   XYZ
    dof rx
    limits (-10.0 170.0)
  end
  begin
     id 4 
     name lfoot
     direction 0.0489572 -0.134509 0.989702   
     length 1.61313   
     axis -90 7.62852e-016 20   XYZ
    dof rx rz
    limits (-45.0 90.0)
           (-70.0 20.0)
  end
  begin
     id 5 
     name ltoes
     direction 1.53451e-011 -4.21692e-011 1   
     length 0.823104   
     axis -90 7.62852e-016 20   XYZ
    dof rx
    limits (-90.0 20.0)
  end
  begin
     id 6 
     name rhipjoint
     direction -0.746398 -0.615468 0.253157   
     length 2.59446  
     axis 0 0 0  XYZ 
  end
  begin
     id 7 
     name rfemur
     direction -0.34202 -0.939693 0   
     length 6.7075   
     axis 0 0 -20   XYZ
    dof rx ry rz
    limits (-160.0 20.0)
           (-70.0 70.0)
           (-70.0 60.0)
  end
  begin
     id 8 
     name rtibia
     direction -0.34202 -0.939693 0   
     length 7.27262   
     axis 0 0 -20   XYZ
    dof rx
    limits (-10.0 170.0)
 end
 begin
     id 9 
     name rfoot
     direction -0.0455203 -0.125066 0.991104   
     length 1.91095  
     axis -90 -7.62852e-016 -20   XYZ
    dof rx rz
    limits (-45.0 90.0)
           (-20.0 70.0)
  end
  begin
     id 10 
     name rtoes
     direction -1.53601e-011 -4.21913e-011 1   
     length 0.969037   
     axis -90 -7.62852e-016 -20   XYZ
    dof rx
    limits (-90.0 20.0)
  end
  begin
     id 11 
     name lowerback
     direction 0.0181546 0.999122 -0.0377542   
     length 1.99916   
     axis 0 0 0   XYZ
    dof rx ry rz
    limits (-20.0 45.0)
           (-30.0 30.0)
           (-30.0 30.0)
  end
  begin
     id 12 
     name upperback
     direction 0.0203486 0.99589 0.0882534   
     length 1.951   
     axis 0 0 0   XYZ
    dof rx ry rz
    limits (-20.0 45.0)
           (-30.0 30.0)
           (-30.0 30.0)
  end
  begin
     id 13 
     name thorax
     direction 0.0131685 0.994241 0.106355   
     length 1.97461   
     axis 0 0 0   XYZ
    dof rx ry rz
    limits (-20.0 45.0)
           (-30.0 30.0)
           (-30.0 30.0)
  end
  begin
     id 14 
     name lowerneck
     direction -0.0281395 0.999325 0.023617   
     length 1.7959   
     axis 0 0 0   XYZ
    dof rx ry rz
    limits (-20.0 45.0)
           (-30.0 30.0)
           (-30.0 30.0)
  end
  begin
     id 15 
     name upperneck
     direction 0.0288721 0.991984 -0.123019   
     length 1.79917   
     axis 0 0 0   XYZ
    dof rx ry rz
    limits (-20.0 45.0)
           (-30.0 30.0)
           (-30.0 30.0)
  end
  begin
     id 16
     name head
     direction 0.0133797 0.998944 -0.0439492  
     length 1.80902  
     axis 0 0 0   XYZ
    dof rx ry rz
    limits (-20.0 45.0)
           (-30.0 30.0)
           (-30.0 30.0)
  end
  begin
     id 17 
     name lclavicle
     direction 0.919195 0.377107 0.113449  
     length 3.17815  
     axis 0 0 0   XYZ
    dof ry rz
    limits (-20.0 10.0)
           (0.0 20.0)
  end
  begin
     id 18 
     name lhumerus
     direction 1 -4.48959e-011 2.13129e-027   
     length 4.84137   
     axis 180 -30 -90   XYZ
    dof rx ry rz
    limits (-60.0 90.0)
           (-90.0 90.0)
           (-90.0 90.0)
  end
  begin
     id 19
     name lradius
     direction 1 -4.48957e-011 -6.30627e-028   
     length 3.2452   
     axis 180 -30 -90   XYZ
    dof rx
    limits (-10.0 170.0)
  end
  begin
     id 20
     name lwrist
     direction 1 -4.4901e-011 9.13299e-027   
     length 1.6226   
     axis -6.84618e-015 90 90   XYZ
    dof ry
    limits (-180.0 0.0)
 end
  begin
     id 21 
     name lhand
     direction 1 -4.48816e-011 1.82293e-026   
     length 0.521221   
     axis -1.16502e-014 90 90   XYZ
    dof rx rz
    limits (-90.0 90.0)
           (-45.0 45.0)
  end
  begin
     id 22 
     name lfingers
     direction 1 -4.49108e-011 3.65687e-026   
     length 0.420221   
     axis -2.33008e-014 90 90   XYZ
    dof rx
    limits (0.0 90.0)
  end
  begin
     id 23
     name lthumb
     direction 0.707107 -6.34943e-011 0.707107   
     length 0.603356   
     axis -90 45 5.69224e-014   XYZ
    dof rx rz
    limits (-45.0 45.0)
           (-45.0 45.0)
  end
  begin
     id 24 
     name rclavicle
     direction -0.90847 0.38596 0.160368   
     length 3.12973  
     axis 0 0 0   XYZ 
    dof ry rz
    limits (-10.0 20.0)
           (-20.0 0.0)
  end
  begin
     id 25 
     name rhumerus
     direction -1 -4.48974e-011 4.47268e-028  
     length 4.72284   
     axis 180 30 90   XYZ
    dof rx ry rz
    limits (-90.0 60.0)
           (-90.0 90.0)
           (-90.0 90.0)
  end
  begin
     id 26 
     name rradius
     direction -1 -4.48969e-011 3.43203e-027   
     length 3.23459   
     axis 180 30 90   XYZ
    dof rx
    limits (-10.0 170.0)
  end
  begin
     id 27 
     name rwrist
     direction -1 -4.48969e-011 9.12911e-027   
     length 1.6173   
     axis -6.84618e-015 -90 -90   XYZ
    dof ry
    limits (-180.0 0.0)
  end
  begin
     id 28
     name rhand
     direction -1 -4.49194e-011 1.83006e-026   
     length 0.307416   
     axis -1.16502e-014 -90 -90   XYZ
    dof rx rz
    limits (-90.0 90.0)
           (-45.0 45.0)
  end
  begin
     id 29
     name rfingers
     direction -1 -4.48423e-011 3.63103e-026   
     length 0.247847   
     axis -2.33008e-014 -90 -90   XYZ
    dof rx
    limits (0.0 90.0)
  end
  begin
     id 30
     name rthumb
     direction -0.707107 -6.34802e-011 0.707107   
     length 0.35586   
     axis -90 -45 -5.69224e-014   XYZ
    dof rx rz
    limits (-45.0 45.0)
           (-45.0 45.0)
  end
:hierarchy
  begin
    root lhipjoint rhipjoint lowerback
    lhipjoint lfemur
    lfemur ltibia
    ltibia lfoot
    lfoot ltoes
    rhipjoint rfemur
    rfemur rtibia
    rtibia rfoot
    rfoot rtoes
    lowerback upperback
    upperback thorax
    thorax lowerneck lclavicle rclavicle
    lowerneck upperneck
    upperneck head
    lclavicle lhumerus
    lhumerus lradius
    lradius lwrist
    lwrist lhand lthumb
    lhand lfingers
    rclavicle rhumerus
    rhumerus rradius
    rradius rwrist
    rwrist rhand rthumb
    rhand rfingers
  end

#!OML:ASF H:\Terrain\Patient Classification 1\Animal1\Tuesday\Animal1.ASF
:FULLY-SPECIFIED
:DEGREES
1
root 11.131 16.3463 -14.7917 10.6915 -5.18258 0.584461
lowerback -4.2685 -0.351789 0.0900949
upperback -5.36432 -0.474401 0.224774
thorax -3.12702 -0.239691 0.174134
lowerneck 0.772489 -2.45895 -5.30571
upperneck 4.50442 -3.57823 8.01481
head 1.57492 -1.76718 3.50548
rclavicle -1.50207e-014 -1.45113e-014
rhumerus -45.0988 2.44265 -82.1562
rradius 31.1798
rwrist -4.31104
rhand -18.177 25.6435
rfingers 7.12502
rthumb 8.09946 -4.18126
lclavicle -1.50207e-014 -1.45113e-014
lhumerus -44.6534 6.62564 80.3273
lradius 34.8344
lwrist -24.3549
lhand 1.4244 42.9088
lfingers 7.12502
lthumb 26.954 71.0063
rfemur -19.899 47.8499 4.23213
rtibia 17.8685
rfoot -50.2912 -42.8321
rtoes 47.3659
lfemur -2.81707 -16.5668 -9.32335
ltibia 1.43125e-014
lfoot -18.5018 15.043
ltoes 37.1446
2
root 11.1324 16.3465 -14.789 10.7051 -5.19841 0.560816
lowerback -4.22888 -0.359698 0.148703
upperback -5.37762 -0.486142 0.21872
thorax -3.16359 -0.24779 0.135285
lowerneck 0.678675 -2.46335 -5.35575
upperneck 4.58663 -3.58707 8.05994
head 1.62182 -1.76926 3.53015
rclavicle -1.22874e-014 4.17448e-015
rhumerus -45.1599 2.52617 -82.1775
rradius 31.1795
rwrist -4.31628
rhand -18.0175 25.4615
rfingers 7.12502
rthumb 8.25341 -4.35733
lclavicle -1.22874e-014 4.17448e-015
lhumerus -44.6713 6.6246 80.2653
lradius 34.8824
lwrist -24.3642
lhand 1.55888 42.8768
lfingers 7.12502
lthumb 27.0826 70.9544
rfemur -19.8735 47.6393 4.29901
rtibia 17.8604
rfoot -49.8507 -42.9384
rtoes 47.2702
lfemur -2.81306 -16.5457 -9.30656
ltibia 1.43125e-014
lfoot -18.7548 14.7725
ltoes 38.7532
3
root 11.1338 16.349 -14.7842 10.7591 -5.23221 0.503425
lowerback -4.30539 -0.342564 0.252483
upperback -5.21261 -0.46608 0.196013
thorax -2.9501 -0.24154 0.0527485
lowerneck 0.042734 -2.52401 -5.31954
upperneck 4.65087 -3.65135 8.10798
head 1.76297 -1.78621 3.53298
rclavicle 1.86143e-014 -1.42131e-014
rhumerus -44.8307 2.60549 -82.2372
rradius 31.1086
rwrist -4.53617
rhand -17.4611 25.3768
rfingers 7.12502
rthumb 8.79042 -4.42014
lclavicle 1.86143e-014 -1.42131e-014
lhumerus -44.2808 6.60814 80.2268
lradius 34.8551
lwrist -24.3628
lhand 1.25692 42.4054
lfingers 7.12502
lthumb 26.7937 70.5276
rfemur -19.909 47.5512 4.32355
rtibia 17.8143
rfoot -49.0121 -43.5633
rtoes 46.6157
lfemur -2.82809 -16.4959 -9.26569
ltibia -2.22639e-014
lfoot -18.6204 14.9225
ltoes 37.8423
4
root 11.1347 16.348 -14.7824 10.7645 -5.20515 0.486597
lowerback -4.31865 -0.348672 0.292965
upperback -5.11819 -0.475504 0.177835
thorax -2.84504 -0.247724 0.0106734
lowerneck -0.31252 -2.5561 -5.26576
upperneck 4.71855 -3.68687 8.11783
head 1.85114 -1.79476 3.52237
rclavicle -2.15215e-014 -1.33186e-014
rhumerus -44.6596 2.629 -82.2175
rradius 31.0555
rwrist -4.62912
rhand -16.7841 25.4586
rfingers 7.12502
rthumb 9.44367 -4.3098
lclavicle -2.15215e-014 -1.33186e-014
lhumerus -44.0004 6.49039 80.2346
lradius 34.7724
lwrist -24.3689
lhand 1.07065 42.2885
lfingers 7.12502
lthumb 26.6155 70.4378
rfemur -19.9253 47.7668 4.30039
rtibia 17.8267
rfoot -49.527 -43.3817
rtoes 46.9829
lfemur -2.83182 -16.5205 -9.26007
ltibia 6.36111e-015
lfoot -18.2243 15.3365
ltoes 35.294
5
root 11.1347 16.3467 -14.7831 10.7233 -5.19989 0.579386
lowerback -4.25427 -0.381111 0.169801
upperback -5.09743 -0.516338 0.16303
thorax -2.85857 -0.264362 0.0640901
lowerneck -0.471594 -2.55884 -5.23167
upperneck 4.87759 -3.69349 8.09024
head 1.93111 -1.79316 3.50536
rclavicle -1.52536e-014 -1.32192e-014
rhumerus -44.5896 2.53068 -82.1123
rradius 30.9516
rwrist -4.39224
rhand -16.489 25.4529
rfingers 7.12502
rthumb 9.72834 -4.30241
lclavicle -1.52536e-014 -1.32192e-014
lhumerus -43.9257 6.36379 80.2611
lradius 34.7294
lwrist -24.3311
lhand 0.888546 42.2866
lfingers 7.12502
lthumb 26.4412 70.4623
rfemur -19.9071 48.0549 4.1612
rtibia 17.8092
rfoot -50.433 -42.9507
rtoes 47.5894
lfemur -2.80273 -16.5492 -9.36293
ltibia 3.81667e-014
lfoot -18.0267 15.4753
ltoes 34.0721
6
root 11.1345 16.346 -14.7836 10.7404 -5.29675 0.606339
lowerback -4.21686 -0.37414 0.10252
upperback -5.10312 -0.505745 0.160588
thorax -2.88484 -0.256921 0.0997396
lowerneck -0.606278 -2.56084 -5.21594
upperneck 5.01317 -3.69905 8.07782
head 1.99995 -1.79183 3.49745
rclavicle -1.13866e-014 3.67752e-015
rhumerus -44.5438 2.5242 -82.0452
rradius 30.8314
rwrist -4.28118
rhand -16.5599 25.483
rfingers 7.12502
rthumb 9.65996 -4.27548
lclavicle -1.13866e-014 3.67752e-015
lhumerus -43.9637 6.17662 80.2778
lradius 34.819
lwrist -24.3135
lhand 0.858924 42.0775
lfingers 7.12502
lthumb 26.4128 70.2574
rfemur -19.982 47.9972 4.08143
rtibia 17.8096
rfoot -50.1542 -43.0043
rtoes 47.3459
lfemur -2.80295 -16.4559 -9.39831
ltibia 3.18055e-015
lfoot -18.1587 15.2896
ltoes 34.7788
7
root 11.1347 16.3452 -14.7826 10.8191 -5.34619 0.551783
lowerback -4.22889 -0.351973 0.165497
upperback -5.15411 -0.477866 0.143716
thorax -2.93179 -0.245479 0.047744
lowerneck -0.586571 -2.57762 -5.1941
upperneck 5.06796 -3.72766 8.10769
head 2.01692 -1.80507 3.50348
rclavicle 6.64686e-015 -1.48095e-014
rhumerus -44.6062 2.54074 -81.9989
rradius 30.7609
rwrist -4.31869
rhand -16.3797 25.2737
rfingers 7.12502
rthumb 9.83384 -4.4767
lclavicle 6.64686e-015 -1.48095e-014
lhumerus -44.046 5.78331 80.3206
lradius 34.9076
lwrist -24.0685
lhand 1.20879 41.9782
lfingers 7.12502
lthumb 26.7477 70.1074
rfemur -20.1065 47.7501 4.11218
rtibia 17.8813
rfoot -49.7196 -42.9315
rtoes 47.0704
lfemur -2.86577 -16.3836 -9.32834
ltibia 1.59028e-015
lfoot -18.411 15.0353
ltoes 36.5524
8
root 11.1345 16.3463 -14.7811 10.8555 -5.34098 0.611451
lowerback -4.21637 -0.357331 0.0998377
upperback -5.20504 -0.484288 0.11835
thorax -2.99142 -0.247048 0.0586605
lowerneck -0.526505 -2.61493 -5.21492
upperneck 5.11658 -3.78261 8.11181
head 2.02691 -1.83362 3.50835
rclavicle -2.42269e-015 3.18055e-015
rhumerus -44.6824 2.56557 -81.9033
rradius 30.6893
rwrist -4.25923
rhand -16.2616 25.4889
rfingers 7.12502
rthumb 9.94781 -4.256
lclavicle -2.42269e-015 3.18055e-015
lhumerus -44.1236 5.50472 80.3289
lradius 34.9471
lwrist -23.803
lhand 1.47807 41.6863
lfingers 7.12502
lthumb 27.0053 69.7759
rfemur -20.1352 47.5358 4.07927
rtibia 17.934
rfoot -49.3438 -43.0618
rtoes 46.6517
lfemur -2.89586 -16.393 -9.3828
ltibia -1.11319e-014
lfoot -18.5652 14.9211
ltoes 37.5096
9
root 11.1348 16.3466 -14.778 10.7937 -5.38243 0.709495
lowerback -4.10779 -0.37143 -0.0457478
upperback -5.28687 -0.500345 0.125968
thorax -3.13606 -0.249926 0.148975
lowerneck -0.212407 -2.62793 -5.29887
upperneck 5.05016 -3.80422 8.08067
head 1.95081 -1.85378 3.51551
rclavicle 9.84605e-015 -1.78906e-014
rhumerus -44.9046 2.78034 -81.8049
rradius 30.6552
rwrist -4.24612
rhand -16.3679 26.4764
rfingers 7.12502
rthumb 9.84524 -3.27339
lclavicle 9.84605e-015 -1.78906e-014
lhumerus -44.3258 5.46164 80.1999
lradius 34.9439
lwrist -23.9743
lhand 1.51502 41.1316
lfingers 7.12502
lthumb 27.0407 69.2157
rfemur -20.029 47.5076 4.04207
rtibia 17.9193
rfoot -48.9975 -43.4089
rtoes 46.2109
lfemur -2.80877 -16.3845 -9.53529
ltibia 1.11319e-014
lfoot -18.5616 14.9887
ltoes 37.1466
10
root 11.1357 16.3469 -14.7766 10.7519 -5.41045 0.636764
lowerback -3.99899 -0.394802 -0.0193348
upperback -5.4133 -0.530773 0.189846
thorax -3.32829 -0.264733 0.201063
lowerneck 0.315029 -2.61237 -5.34962
upperneck 4.91974 -3.79074 8.0039
head 1.81024 -1.86139 3.50305
rclavicle 2.7513e-014 9.64106e-015
rhumerus -45.216 3.11531 -81.7438
rradius 30.6044
rwrist -4.30941
rhand -16.465 25.9039
rfingers 7.12502
rthumb 9.75159 -3.85037
lclavicle 2.7513e-014 9.64106e-015
lhumerus -44.49 5.4836 79.9843
lradius 34.6573
lwrist -24.4784
lhand 1.4664 40.4526
lfingers 7.12502
lthumb 26.9942 68.5439
rfemur -19.9834 47.5751 4.12704
rtibia 17.9042
rfoot -49.051 -43.4182
rtoes 46.3487
lfemur -2.74871 -16.3537 -9.4916
ltibia 2.06736e-014
lfoot -18.5189 15.0328
ltoes 36.8734
11
root 11.1364 16.3485 -14.7782 10.7552 -5.38617 0.50151
lowerback -3.95273 -0.399451 0.125673
upperback -5.45628 -0.538364 0.22196
thorax -3.40005 -0.273168 0.153487
lowerneck 0.464685 -2.67627 -5.31459
upperneck 4.98176 -3.8797 7.8686
head 1.80521 -1.90976 3.44882
rclavicle -5.19325e-015 6.36111e-015
rhumerus -45.225 3.39829 -81.7339
rradius 30.3925
rwrist -4.45375
rhand -16.286 23.3416
rfingers 7.12502
rthumb 9.92422 -6.40446
lclavicle -5.19325e-015 6.36111e-015
lhumerus -44.3214 5.4235 79.76
lradius 34.1582
lwrist -25.0234
lhand 1.29964 39.6694
lfingers 7.12502
lthumb 26.8346 67.7853
rfemur -19.9837 47.6317 4.24716
rtibia 17.8673
rfoot -49.2289 -43.274
rtoes 46.7257
lfemur -2.74557 -16.3524 -9.34322
ltibia 6.36111e-015
lfoot -18.4301 15.0557
ltoes 36.6941
12
root 11.1367 16.349 -14.778 10.7633 -5.39027 0.474313
lowerback -3.96121 -0.365058 0.20119
upperback -5.16204 -0.494594 0.174033
thorax -3.08998 -0.254485 0.0606949
lowerneck -0.730632 -2.85158 -5.23247
upperneck 5.32693 -4.08819 7.79319
head 2.14716 -1.98621 3.39142
rclavicle 2.5345e-014 9.14409e-015
rhumerus -44.3918 3.44413 -81.613
rradius 29.9433
rwrist -4.30176
rhand -15.4303 21.878
rfingers 7.12502
rthumb 10.7497 -7.82694
lclavicle 2.5345e-014 9.14409e-015
lhumerus -43.4714 5.45744 79.4646
lradius 33.8497
lwrist -25.6866
lhand 1.92704 39.1802
lfingers 7.12502
lthumb 27.4348 67.2025
rfemur -19.9283 47.5634 4.30157
rtibia 17.7762
rfoot -48.608 -43.7073
rtoes 46.1739
lfemur -2.74224 -16.3424 -9.31566
ltibia -2.06736e-014
lfoot -18.3913 15.0533
ltoes 36.6566
13
root 11.1356 16.3502 -14.7788 10.7855 -5.41527 0.494477
lowerback -3.95501 -0.36406 0.143808
upperback -5.0861 -0.492231 0.175883
thorax -3.01397 -0.251195 0.0944086
lowerneck -1.02047 -2.90713 -5.30435
upperneck 5.33686 -4.15462 7.8619
head 2.21311 -2.01343 3.42479
rclavicle 1.75924e-014 -5.26779e-015
rhumerus -44.0475 3.77787 -81.4694
rradius 29.5293
rwrist -4.01418
rhand -14.5147 21.7899
rfingers 7.12502
rthumb 11.6328 -7.86722
lclavicle 1.75924e-014 -5.26779e-015
lhumerus -43.1978 5.58085 79.0062
lradius 33.7271
lwrist -26.4802
lhand 2.91373 38.6172
lfingers 7.12502
lthumb 28.3781 66.4862
rfemur -19.8649 47.137 4.38525
rtibia 17.7139
rfoot -47.2631 -44.321
rtoes 45.2185
lfemur -2.79681 -16.3164 -9.32334
ltibia 1.59028e-015
lfoot -18.2171 15.2076
ltoes 35.9994
14
root 11.1335 16.3526 -14.7822 10.7946 -5.46771 0.577664
lowerback -3.8848 -0.369143 -0.00867184
upperback -5.09252 -0.496422 0.176345
thorax -3.05867 -0.248119 0.180753
lowerneck -1.17685 -2.94378 -5.35517
upperneck 5.51929 -4.20655 7.8551
head 2.30788 -2.03584 3.43025
rclavicle 2.12451e-015 1.66979e-014
rhumerus -43.9053 4.33089 -81.3428
rradius 29.1848
rwrist -3.66384
rhand -13.2674 20.9183
rfingers 7.12502
rthumb 12.8355 -8.66711
lclavicle 2.12451e-015 1.66979e-014
lhumerus -42.9654 5.61268 78.5425
lradius 33.293
lwrist -27.1011
lhand 3.20988 38.209
lfingers 7.12502
lthumb 28.6611 66.0305
rfemur -19.8673 46.6988 4.36913
rtibia 17.7256
rfoot -46.3856 -44.5988
rtoes 44.6416
lfemur -2.86018 -16.2781 -9.41053
ltibia 7.95139e-015
lfoot -17.7902 15.6063
ltoes 34.0112
15
root 11.1324 16.3534 -14.7854 10.7687 -5.50424 0.687634
lowerback -3.79269 -0.354958 -0.139949
upperback -5.05777 -0.476516 0.123739
thorax -3.07362 -0.234662 0.20087
lowerneck -1.56078 -3.02642 -5.32591
upperneck 5.9166 -4.3251 7.82378
head 2.51874 -2.08388 3.4089
rclavicle 2.40234e-014 1.19271e-015
rhumerus -43.6701 4.47635 -80.896
rradius 28.8438
rwrist -2.22651
rhand -11.0223 19.497
rfingers 7.12502
rthumb 14.999 -9.93975
lclavicle 2.40234e-014 1.19271e-015
lhumerus -42.5665 5.44588 78.1017
lradius 32.7421
lwrist -27.5617
lhand 3.40287 38.3492
lfingers 7.12502
lthumb 28.8455 66.1395
rfemur -19.8879 46.6169 4.244
rtibia 17.7381
rfoot -46.2407 -44.7381
rtoes 44.2364
lfemur -2.88139 -16.2677 -9.54235
ltibia -4.77083e-015
lfoot -17.5272 15.8682
ltoes 32.0746
